<?xml version="1.0" encoding="UTF-8" standalone="no" ?>
<!DOCTYPE svg PUBLIC "-//W3C//DTD SVG 1.1//EN" "http://www.w3.org/Graphics/SVG/1.1/DTD/svg11.dtd">
<svg xmlns="http://www.w3.org/2000/svg" xmlns:xlink="http://www.w3.org/1999/xlink" version="1.1" width="1080" height="1080" viewBox="0 0 1080 1080" xml:space="preserve">
<desc>Created with Fabric.js 5.2.4</desc>
<defs>
</defs>
<g transform="matrix(1 0 0 1 540 540)" id="f6ec96c1-7e38-461f-b9e2-41da80b65d31"  >
</g>
<g transform="matrix(1 0 0 1 540 540)" id="c64c999f-0afd-4565-a420-280a3115d8dd"  >
<rect style="stroke: none; stroke-width: 1; stroke-dasharray: none; stroke-linecap: butt; stroke-dashoffset: 0; stroke-linejoin: miter; stroke-miterlimit: 4; fill: rgb(255,255,255); fill-rule: nonzero; opacity: 1; visibility: hidden;" vector-effect="non-scaling-stroke"  x="-540" y="-540" rx="0" ry="0" width="1080" height="1080" />
</g>
<g transform="matrix(20.87 0 0 20.87 255.07 523.62)"  >
<path style="stroke: rgb(255,255,255); stroke-width: 0; stroke-dasharray: none; stroke-linecap: butt; stroke-dashoffset: 0; stroke-linejoin: miter; stroke-miterlimit: 4; fill: rgb(255,255,255); fill-rule: nonzero; opacity: 1;" vector-effect="non-scaling-stroke"  transform=" translate(-7.5, -7.5)" d="M 2.64 1.27 L 7.5 6.13 L 12.34 1.29 C 12.5114 1.1076 12.7497 1.0029 13 1 C 13.5523 1 14 1.4477 14 2 C 14.0047 2.2478 13.907 2.4866 13.73 2.66 L 8.84 7.5 L 13.73 12.39 C 13.8948 12.551200000000001 13.9915 12.7696 14 13 C 14 13.5523 13.5523 14 13 14 C 12.7423 14.0107 12.492 13.9127 12.31 13.73 L 7.5 8.87 L 2.6500000000000004 13.719999999999999 C 2.4793 13.8963 2.2453 13.9971 2 14 C 1.4477 14 1 13.5523 1 13 C 0.9953 12.7522 1.093 12.5134 1.27 12.34 L 6.16 7.5 L 1.27 2.61 C 1.1052 2.4488 1.0085 2.2304 1 2 C 1 1.4477 1.4477 1 2 1 C 2.2404 1.0029 2.4701 1.0998 2.64 1.27 z" stroke-linecap="round" />
</g>
<g transform="matrix(1 0 0 1 253.92 377.49)" id="fbb16f9e-518e-4455-b2fe-1222ad258c0a"  >
<circle style="stroke: rgb(0,0,0); stroke-width: 0; stroke-dasharray: none; stroke-linecap: butt; stroke-dashoffset: 0; stroke-linejoin: miter; stroke-miterlimit: 4; fill: rgb(244,42,42); fill-rule: nonzero; opacity: 1;" vector-effect="non-scaling-stroke"  cx="0" cy="0" r="35" />
</g>
<g transform="matrix(1 0 0 1 416.43 540)" id="4cc4d771-9cc6-4bfd-87e8-5dfc6fd5667f"  >
<circle style="stroke: rgb(199,42,190); stroke-width: 0; stroke-dasharray: none; stroke-linecap: butt; stroke-dashoffset: 0; stroke-linejoin: miter; stroke-miterlimit: 4; fill: rgb(199,42,190); fill-rule: nonzero; opacity: 1;" vector-effect="non-scaling-stroke"  cx="0" cy="0" r="35" />
</g>
<g transform="matrix(1 0 0 1 96.49 521.38)" id="dad794b1-79bd-457e-823b-a6c1e4e5298c"  >
<circle style="stroke: rgb(0,0,0); stroke-width: 0; stroke-dasharray: none; stroke-linecap: butt; stroke-dashoffset: 0; stroke-linejoin: miter; stroke-miterlimit: 4; fill: rgb(200,158,62); fill-rule: nonzero; opacity: 1;" vector-effect="non-scaling-stroke"  cx="0" cy="0" r="35" />
</g>
<g transform="matrix(1 0 0 1 253.92 661.88)" id="52261609-bb3c-4190-bf53-4ea8c89f1d85"  >
<circle style="stroke: rgb(0,0,0); stroke-width: 0; stroke-dasharray: none; stroke-linecap: butt; stroke-dashoffset: 0; stroke-linejoin: miter; stroke-miterlimit: 4; fill: rgb(23,200,140); fill-rule: nonzero; opacity: 1;" vector-effect="non-scaling-stroke"  cx="0" cy="0" r="35" />
</g>
<g transform="matrix(NaN NaN NaN NaN 0 0)"  >
<g style=""   >
</g>
</g>
<g transform="matrix(1 0 0 1 725.01 521.88)" style="" id="d6dcaf03-ee46-49f9-914a-e33546e76380"  >
		<text xml:space="preserve" font-family="Raleway" font-size="105" font-style="normal" font-weight="900" style="stroke: none; stroke-width: 1; stroke-dasharray: none; stroke-linecap: butt; stroke-dashoffset: 0; stroke-linejoin: miter; stroke-miterlimit: 4; fill: rgb(255,255,255); fill-rule: nonzero; opacity: 1; white-space: pre;" ><tspan x="-237.14" y="32.98" >Cross-On</tspan></text>
</g>
</svg>